SplineFontDB: 3.0
FontName: Skeemat
FullName: skeemat
FamilyName: skeemat
Weight: Book
Copyright: (c)1998 http://www.grilledcheese.com,  TeA Curran
Version: Macromedia Fontographer 4.1.5 8/30/98
ItalicAngle: 0
UnderlinePosition: -123
UnderlineWidth: 20
Ascent: 800
Descent: 200
InvalidEm: 0
sfntRevision: 0x00010000
LayerCount: 2
Layer: 0 1 "Back" 1
Layer: 1 1 "Fore" 0
XUID: [1021 270 -1463357204 13476955]
FSType: 1
OS2Version: 0
OS2_WeightWidthSlopeOnly: 0
OS2_UseTypoMetrics: 1
CreationTime: 904502035
ModificationTime: 1424544801
PfmFamily: 81
TTFWeight: 400
TTFWidth: 5
LineGap: 0
VLineGap: 0
Panose: 0 0 4 0 0 0 0 0 0 0
OS2TypoAscent: 832
OS2TypoAOffset: 0
OS2TypoDescent: -422
OS2TypoDOffset: 0
OS2TypoLinegap: 0
OS2WinAscent: 832
OS2WinAOffset: 0
OS2WinDescent: 422
OS2WinDOffset: 0
HheadAscent: 832
HheadAOffset: 0
HheadDescent: -422
HheadDOffset: 0
OS2SubXSize: 700
OS2SubYSize: 650
OS2SubXOff: 0
OS2SubYOff: 143
OS2SupXSize: 700
OS2SupYSize: 650
OS2SupXOff: 0
OS2SupYOff: 453
OS2StrikeYSize: 50
OS2StrikeYPos: 259
OS2CapHeight: 0
OS2XHeight: 0
OS2Vendor: 'Alts'
OS2UnicodeRanges: 00000000.00000000.00000000.00000000
DEI: 91125
TtTable: prep
NPUSHB
 17
 11
 11
 10
 10
 9
 9
 8
 8
 3
 3
 2
 2
 1
 1
 0
 0
 1
SCANTYPE
PUSHW_1
 511
SCANCTRL
RCVT
ROUND[Grey]
WCVTP
RCVT
ROUND[Grey]
WCVTP
RCVT
ROUND[Grey]
WCVTP
RCVT
ROUND[Grey]
WCVTP
RCVT
ROUND[Grey]
WCVTP
RCVT
ROUND[Grey]
WCVTP
RCVT
ROUND[Grey]
WCVTP
RCVT
ROUND[Grey]
WCVTP
PUSHB_4
 5
 4
 70
 0
CALL
PUSHB_4
 7
 6
 70
 0
CALL
PUSHB_2
 4
 4
RCVT
ROUND[Grey]
WCVTP
PUSHB_2
 6
 6
RCVT
ROUND[Grey]
WCVTP
EndTTInstrs
TtTable: fpgm
NPUSHB
 1
 0
FDEF
SROUND
RCVT
DUP
PUSHB_1
 3
CINDEX
RCVT
SWAP
SUB
ROUND[Grey]
RTG
SWAP
ROUND[Grey]
ADD
WCVTP
ENDF
EndTTInstrs
ShortTable: cvt  56
  -326
  -21
  421
  778
  35
  119
  36
  265
  36
  59
  323
  107
  23206
  -3177
  15086
  1328
  7492
  -22060
  26683
  -23756
  -13107
  7510
  5105
  -18323
  9481
  -14663
  27740
  7675
  -13216
  32523
  21491
  -29785
  -22266
  4555
  9401
  -19108

StartChar: .notdef
Encoding: 65536 -1 0
Width: 500
Flags: W
LayerCount: 2
Back
Fore
SplineSet
63 0 m 1,0,-1
 63 832 l 1,1,-1
 438 832 l 1,2,-1
 438 0 l 1,3,-1
 63 0 l 1,0,-1
125 63 m 1,4,-1
 375 63 l 1,5,-1
 375 770 l 1,6,-1
 125 770 l 1,7,-1
 125 63 l 1,4,-1
EndSplineSet
Validated: 1
EndChar

StartChar: exclam
Encoding: 33 33 4
Width: 549
Flags: W
LayerCount: 2
Back
Fore
SplineSet
479 635 m 1,0,1
 478 638 478 638 477 642 c 1,2,3
 479 639 479 639 479 635 c 1,0,1
476 643 m 1,4,5
 473 650 473 650 468 665 c 1,6,7
 475 651 475 651 476 643 c 1,4,5
453 663 m 1,8,-1
 454 663 l 1,9,-1
 454 661 l 1,10,-1
 453 663 l 1,8,-1
435 702 m 1,11,12
 436 704 436 704 448 709 c 1,13,-1
 435 702 l 1,11,12
466 18 m 1,14,15
 464 18 l 1,16,17
 462 18 l 2,18,19
 461 18 461 18 459 20 c 1,20,21
 471 27 471 27 474.5 27 c 128,-1,22
 478 27 478 27 481 24 c 1,23,24
 476 23 476 23 466 18 c 1,14,15
407 692 m 1,25,-1
 403 693 l 1,26,27
 403 696 403 696 407 700 c 0,28,29
 409 699 409 699 411 697 c 0,30,31
 410 693 410 693 407 692 c 1,25,-1
417 26 m 1,32,33
 425 27 425 27 442 30 c 1,34,-1
 453 29 l 1,35,36
 445 26 445 26 417 26 c 1,32,33
370 724 m 2,37,-1
 367 723 l 1,38,39
 369 729 369 729 372 733 c 1,40,-1
 375 732 l 2,41,42
 375 731 375 731 375 730 c 0,43,44
 375 725 375 725 370 724 c 2,37,-1
403 56 m 2,45,-1
 402 56 l 1,46,47
 402 57 402 57 402 58 c 0,48,49
 402 60 402 60 404 60 c 1,50,51
 404 56 404 56 403 56 c 2,45,-1
385 75 m 1,52,53
 384 76 384 76 384 77 c 0,54,55
 384 81 384 81 386 82 c 0,56,57
 389 83 389 83 390 83 c 1,58,-1
 390 83 l 1,59,60
 390 80 390 80 385 75 c 1,52,53
388 26 m 1,61,62
 387 27 387 27 387.179487179 27.543721236 c 2,63,64
 387 28 l 1,65,-1
 387.207407407 28.0828532236 l 1,66,67
 387 30 387 30 391 34 c 1,68,-1
 388 26 l 1,61,62
307 714 m 1,69,-1
 308 721 l 1,70,-1
 309 721 l 2,71,72
 310 721 310 721 313 716 c 1,73,-1
 313 714 l 1,74,-1
 307 714 l 1,69,-1
412 741 m 2,75,-1
 403 735 l 257,76,77
 401 735 401 735 400 737 c 0,78,79
 402 739 402 739 402 744 c 0,80,81
 401 745 401 745 400.43877551 744.785714286 c 2,82,83
 400 745 l 1,84,85
 399 744 399 744 398 742 c 0,86,87
 396 739 396 739 394.8 738.8 c 2,88,-1
 394 739 l 1,89,-1
 391 746 l 1,90,91
 390 746 l 2,92,93
 387 746 387 746 386 749 c 2,94,-1
 384 753 l 1,95,96
 378 747 378 747 378 746 c 1,97,-1
 378 746 l 1,98,99
 376 746 376 746 376 750 c 0,100,101
 376 753 376 753 373 753 c 2,102,103
 372 753 l 1,104,-1
 372 753 l 1,105,106
 372 750 372 750 362 749 c 1,107,108
 362 751 362 751 361 754 c 0,109,110
 360 755 360 755 359.5625 754.75 c 2,111,112
 359 755 l 1,113,-1
 358.7 754.7 l 1,114,115
 357 755 357 755 356 752 c 0,116,117
 354 748 354 748 352.5 748 c 128,-1,118
 351 748 351 748 350 749 c 0,119,120
 347 757 347 757 344 757 c 1,121,-1
 343 750 l 1,122,123
 342 752 342 752 339 755 c 0,124,125
 337 757 337 757 336.562130178 756.692307692 c 2,126,127
 336 757 l 1,128,129
 335.711111111 756.733333333 l 2,130,131
 335 757 335 757 335 756 c 0,132,133
 334 754 334 754 333 751 c 1,134,-1
 321 748 l 1,135,136
 321 751 321 751 320 754 c 1,137,-1
 318 754 l 1,138,139
 317 747 317 747 306.5 743.5 c 128,-1,140
 296 740 296 740 295 739 c 1,141,-1
 293 740 l 1,142,143
 288 735 288 735 286 735 c 2,144,-1
 279 738 l 1,145,-1
 279 732 l 1,146,-1
 276 732 l 1,147,148
 276 734 276 734 275 734 c 2,149,150
 274.711111111 734.126419753 l 2,151,152
 275 734 275 734 274 734 c 0,153,154
 272 733 272 733 270 733 c 128,-1,155
 268 733 268 733 267 734 c 0,156,157
 257 730 257 730 213.5 720.5 c 128,-1,158
 170 711 170 711 153 691 c 0,159,160
 151 690 151 690 151.181818182 687.661157025 c 2,161,-1
 151 687 l 1,162,-1
 151.166666667 686.444444444 l 2,163,164
 151 685 151 685 152 683 c 1,165,166
 156 684 156 684 176.5 693.5 c 128,-1,167
 197 703 197 703 207 710 c 0,168,169
 209 710 209 710 214 712 c 0,170,171
 218 714 218 714 222 714 c 0,172,173
 223 714 223 714 225 714 c 1,174,175
 218 710 218 710 210 706 c 2,176,-1
 187 695 l 2,177,178
 174 689 174 689 170 677 c 0,179,180
 171 675 171 675 173 675 c 1,181,-1
 173 679 l 1,182,183
 184 691 184 691 237 710 c 0,184,185
 241 712 241 712 248 712 c 1,186,187
 233 696 233 696 228 685 c 0,188,189
 223 668 223 668 199.5 630.5 c 128,-1,190
 176 593 176 593 175 592 c 1,191,-1
 168 599 l 1,192,193
 168 609 168 609 158 626 c 1,194,-1
 157 626 l 2,195,196
 150 626 150 626 144 608 c 1,197,198
 142 611 142 611 139.720946456 610.788390444 c 1,199,200
 140 611 140 611 139.5 611 c 128,-1,201
 139 611 139 611 139.015581269 610.788390444 c 1,202,203
 137 611 137 611 134 608 c 0,204,205
 128 603 128 603 128 600 c 0,206,207
 123 597 123 597 123 590 c 0,208,209
 123 587 123 587 123 585 c 0,210,211
 124 583 124 583 125.297520661 583.181818182 c 1,212,213
 125 583 125 583 125.5 583 c 128,-1,214
 126 583 126 583 126.041666667 583.166666667 c 0,215,216
 127 583 127 583 128 584 c 128,-1,217
 129 585 129 585 131 585 c 0,218,219
 132 585 132 585 134 584 c 1,220,221
 135 584 l 1,222,-1
 135.455418381 584.148148148 l 2,223,224
 138 584 138 584 143 588 c 0,225,226
 144 588 144 588 145 588 c 0,227,228
 148 588 148 588 150 585 c 0,229,230
 152 581 152 581 154 581 c 256,231,232
 156 581 156 581 158 582 c 1,233,234
 160 573 160 573 161 573 c 1,235,-1
 161 573 l 1,236,237
 161 570 161 570 165 566 c 1,238,239
 181 571 181 571 184 571 c 2,240,-1
 185 571 l 1,241,242
 184 567 184 567 180 558 c 1,243,244
 174 560 174 560 161 560 c 0,245,246
 158 558 158 558 157 551 c 1,247,-1
 129 548 l 1,248,-1
 129 544 l 1,249,250
 132 542 132 542 137 542 c 0,251,252
 139 542 139 542 142.5 542.5 c 128,-1,253
 146 543 146 543 148 543 c 0,254,255
 153 543 153 543 155 541 c 0,256,257
 155 535 155 535 153 530 c 1,258,-1
 151 532 l 1,259,260
 138 532 138 532 115 535 c 1,261,-1
 114 534 l 1,262,263
 115 533 l 1,264,265
 119 533 119 533 144 524 c 1,266,267
 129 521 129 521 129 516 c 1,268,269
 130 515 130 515 131.4375 515.25 c 0,270,271
 132 515 132 515 133 515 c 2,272,273
 133.58 515.3 l 1,274,275
 138 515 138 515 146 518 c 0,276,277
 155 517 155 517 157 508 c 1,278,279
 153 500 153 500 153 487 c 1,280,-1
 158 483 l 1,281,282
 163 498 163 498 163 504 c 128,-1,283
 163 510 163 510 160 514 c 0,284,285
 158 517 158 517 158.181818182 520.115702479 c 1,286,287
 158 520 158 520 158 520.5 c 128,-1,288
 158 521 158 521 158.166666667 521.555555556 c 0,289,290
 158 524 158 524 159 526 c 0,291,292
 161 533 161 533 165 552 c 1,293,294
 175 548 175 548 183 548 c 128,-1,295
 191 548 191 548 198 551 c 0,296,297
 204 558 204 558 203.823529412 564.105536332 c 1,298,299
 204 564 204 564 204 564.5 c 128,-1,300
 204 565 204 565 203.846153846 565.24852071 c 0,301,302
 204 567 204 567 203 569 c 0,303,304
 194 578 194 578 194 579 c 0,305,306
 199 588 199 588 211 605 c 1,307,308
 221 546 221 546 270 519 c 0,309,310
 279 516 279 516 288 514 c 0,311,312
 293 513 293 513 296.375 513.1 c 0,313,314
 297 513 297 513 297.5 513 c 128,-1,315
 298 513 298 513 297.975 513.1 c 1,316,317
 301 513 301 513 304 514 c 0,318,319
 308 515 308 515 315 515 c 0,320,321
 318 515 318 515 322 515 c 1,322,323
 322 483 322 483 317 420 c 1,324,325
 316 424 316 424 313.037460978 423.612903226 c 1,326,327
 312 424 l 1,328,329
 311.995 423.7 l 2,330,331
 311 424 311 424 310 423 c 0,332,333
 308 422 308 422 306.430555556 422.166666667 c 0,334,335
 306 422 306 422 305.5 422 c 128,-1,336
 305 422 305 422 305.190082645 422.181818182 c 1,337,338
 303 422 303 422 302 424 c 0,339,340
 295 428 295 428 277.5 432 c 128,-1,341
 260 436 260 436 161 479 c 1,342,-1
 158 476 l 1,343,344
 240 435 240 435 317 415 c 1,345,346
 317 388 317 388 315 368 c 128,-1,347
 313 348 313 348 306 273 c 1,348,349
 295 266 295 266 274 250 c 1,350,351
 248 222 248 222 238.5 187 c 128,-1,352
 229 152 229 152 220 89 c 1,353,-1
 210 89 l 1,354,355
 209 88 209 88 208 84 c 0,356,357
 212 80 212 80 212 71 c 2,358,-1
 212 57 l 1,359,360
 214 51 214 51 214 44 c 128,-1,361
 214 37 214 37 213 29 c 1,362,363
 198 29 198 29 182 23 c 0,364,365
 157 17 157 17 148 6 c 1,366,367
 151 -2 151 -2 170 -8 c 1,368,369
 223 -3 223 -3 242 11 c 1,370,371
 243 24 243 24 243 38 c 0,372,373
 243 43 243 43 242.666666667 46.8888888889 c 0,374,375
 243 55 243 55 244 62 c 0,376,377
 245 66 245 66 245 72 c 0,378,379
 245 80 245 80 244 93 c 1,380,381
 241 92 241 92 235 92 c 0,382,383
 232 92 232 92 228 92 c 1,384,-1
 235 149 l 2,385,386
 238 170 238 170 254 209 c 0,387,388
 255 215 255 215 279 247 c 1,389,-1
 290 254 l 2,390,391
 304 263 304 263 310 267 c 1,392,393
 330 255 330 255 344 229 c 0,394,395
 348 216 348 216 368.5 168 c 128,-1,396
 389 120 389 120 390 91 c 1,397,398
 385 91 385 91 377 87 c 1,399,400
 376 80 376 80 376 67.5 c 128,-1,401
 376 55 376 55 380 34 c 0,402,403
 379 30 379 30 379 23 c 256,404,405
 379 16 379 16 380 7 c 0,406,407
 382 5 382 5 384 5 c 2,408,409
 385 5 l 1,410,411
 393 13 393 13 393 15 c 1,412,-1
 393 15 l 1,413,414
 396 15 396 15 400 7 c 1,415,416
 429 10 429 10 470 12 c 1,417,-1
 488 17 l 1,418,-1
 505 16 l 1,419,420
 505 17 l 2,421,422
 505 19 505 19 504 20 c 0,423,424
 502 22 502 22 485.5 29 c 128,-1,425
 469 36 469 36 447.5 36 c 128,-1,426
 426 36 426 36 409 34 c 1,427,428
 409 37 409 37 408.666666667 40.6666666667 c 0,429,430
 409 49 409 49 410 62 c 0,431,432
 411 74 411 74 411 85 c 0,433,434
 411 92 411 92 411 99 c 1,435,-1
 410 99 l 2,436,437
 406 99 406 99 397 94 c 1,438,439
 385 157 385 157 340 246 c 0,440,441
 328 264 328 264 314 276 c 1,442,-1
 318 329 l 2,443,444
 318 331 318 331 324 420 c 1,445,446
 335 421 335 421 345 429 c 1,447,448
 370 438 370 438 414 466 c 0,449,450
 422 474 422 474 448 498 c 128,-1,451
 474 522 474 522 502 562 c 1,452,453
 521 565 521 565 550 597 c 1,454,455
 542 595 542 595 528.5 584 c 128,-1,456
 515 573 515 573 507 571 c 1,457,458
 518 600 518 600 544 631 c 0,459,460
 544 634 544 634 542 637 c 0,461,462
 533 636 533 636 500 573 c 1,463,-1
 496 569 l 1,464,465
 496 572 496 572 496 575 c 0,466,467
 496 587 496 587 501 599 c 0,468,469
 508 615 508 615 514 630 c 0,470,471
 512 632 512 632 510 632 c 2,472,473
 509 632 l 1,474,475
 504 626 504 626 486 566 c 1,476,477
 485 567 485 567 479 569.5 c 128,-1,478
 473 572 473 572 473 576 c 0,479,480
 466 583 466 583 464 583 c 2,481,-1
 463 583 l 1,482,483
 463 582 463 582 463 581 c 0,484,485
 463 577 463 577 469 566 c 1,486,487
 477 558 477 558 480.901234568 558.444444444 c 1,488,489
 481 558 l 1,490,-1
 482 558 l 2,491,492
 483 558 483 558 483 559 c 2,493,494
 484.28125 558.625 l 1,495,496
 487 559 487 559 490 556 c 1,497,498
 449 492 449 492 358 439 c 0,499,500
 347 434 347 434 324 428 c 1,501,-1
 325 432 l 1,502,503
 325 440 325 440 325 448 c 0,504,505
 325 453 325 453 324.857142857 458.510204082 c 0,506,507
 325 490 325 490 330 519 c 1,508,-1
 331 520 l 1,509,510
 339 523 339 523 347.5 525 c 128,-1,511
 356 527 356 527 385 541 c 0,512,513
 396 549 396 549 417 570 c 1,514,515
 445 613 445 613 445 651 c 0,516,517
 445 660 445 660 443 669 c 1,518,-1
 444 670 l 1,519,520
 448 662 448 662 462 620 c 1,521,-1
 464 621 l 1,522,523
 460 633 460 633 456 658 c 1,524,525
 463 643 463 643 464.5 633.5 c 128,-1,526
 466 624 466 624 470 613 c 1,527,-1
 472 615 l 1,528,-1
 472 619 l 1,529,530
 467 640 467 640 456.5 665.5 c 128,-1,531
 446 691 446 691 443 697 c 1,532,533
 449 688 449 688 458 672 c 128,-1,534
 467 656 467 656 480 615 c 1,535,536
 477 614 477 614 477 612 c 2,537,538
 477 611 l 1,539,540
 478 610 478 610 480 610 c 256,541,542
 482 610 482 610 483 611 c 1,543,-1
 483 622 l 1,544,545
 487 612 487 612 487 608 c 128,-1,546
 487 604 487 604 486 602 c 1,547,548
 488 603 488 603 491 603 c 0,549,550
 492 605 492 605 491.75 607.3125 c 0,551,552
 492 608 492 608 492 608.5 c 128,-1,553
 492 609 492 609 491.7 609.94 c 0,554,555
 492 616 492 616 489 622 c 2,556,-1
 482 641 l 2,557,558
 475 661 475 661 454 704 c 1,559,-1
 457 707 l 2,560,561
 457 708 457 708 457 709 c 0,562,563
 457 711 457 711 455 715 c 0,564,565
 454 715 454 715 451 713 c 0,566,567
 450 714 450 714 449 716 c 0,568,569
 446 715 446 715 444 715 c 0,570,571
 442 716 442 716 436 718 c 0,572,573
 432 719 432 719 430.23 718.9 c 2,574,575
 430 719 l 1,576,-1
 429.42 718.9 l 2,577,578
 428 719 428 719 427 718 c 0,579,580
 422 720 422 720 419 726 c 1,581,582
 421 728 421 728 421 730 c 2,583,-1
 421 731 l 1,584,-1
 420 731 l 2,585,586
 418 731 418 731 414 729 c 1,587,588
 410 730 410 730 410.387096774 732.338189386 c 1,589,590
 410 733 l 1,591,-1
 410.3 733.54 l 2,592,593
 410 734 410 734 411 735 c 0,594,595
 412 738 412 738 412 739 c 128,-1,596
 412 740 412 740 412 741 c 2,75,-1
234 679 m 1,597,598
 243 706 243 706 273 720 c 1,599,-1
 278 720 l 1,600,601
 255 703 255 703 234 679 c 1,597,598
221 643 m 1,602,603
 222 658 222 658 259 692 c 0,604,605
 262 696 262 696 273 702 c 1,606,607
 255 683 255 683 221 643 c 1,602,603
218 628 m 1,608,-1
 218 629 l 2,609,610
 218 635 218 635 227 642 c 1,611,-1
 218 628 l 1,608,-1
189 598 m 1,612,-1
 180 582 l 1,613,-1
 180 583 l 2,614,615
 180 593 180 593 211 640 c 1,616,617
 211 629 211 629 189 598 c 1,612,-1
189 580 m 1,618,-1
 186 579 l 1,619,620
 187 582 187 582 194 597 c 1,621,-1
 209 619 l 1,622,-1
 209 614 l 1,623,624
 202 605 202 605 189 580 c 1,618,-1
165 694 m 1,625,626
 168 701 168 701 195 711 c 1,627,628
 185 703 185 703 165 694 c 1,625,626
191 559 m 2,629,-1
 185 558 l 1,630,631
 185 566 185 566 190 571 c 0,632,633
 195 571 195 571 197 567 c 0,634,635
 197 566 197 566 197 565 c 0,636,637
 197 560 197 560 191 559 c 2,629,-1
238 82 m 1,638,-1
 236 82 l 1,639,-1
 236 85 l 1,640,641
 237 84 237 84 238 82 c 1,638,-1
234 24 m 1,642,-1
 235 26 l 1,643,-1
 235 24 l 1,644,-1
 234 24 l 1,642,-1
226 26 m 1,645,646
 227 31 227 31 231 35 c 1,647,648
 228 29 228 29 226 26 c 1,645,646
158 608 m 1,649,-1
 149 608 l 1,650,651
 150 617 150 617 155 620 c 1,652,653
 158 615 158 615 158 610 c 0,654,655
 158 609 158 609 158 608 c 1,649,-1
129 410 m 1,656,-1
 129 408 l 2,657,658
 129 407 129 407 133 406 c 1,659,-1
 158 410 l 2,660,661
 163 410 163 410 167 407 c 128,-1,662
 171 404 171 404 171 400 c 128,-1,663
 171 396 171 396 165 390 c 0,664,665
 162 388 162 388 156.164215926 388.032890291 c 1,666,-1
 156 388 l 2,667,668
 155.834151882 388.033162976 155.834151882 388.033162976 117 395 c 1,669,670
 108 395 108 395 105 390 c 0,671,672
 96 383 96 383 85 383 c 128,-1,673
 74 383 74 383 65 386.5 c 128,-1,674
 56 390 56 390 56.1764705882 393.648788927 c 1,675,-1
 56 394 l 1,676,-1
 56.1538461538 394.24260355 l 2,677,678
 56 395 56 395 57 397 c 0,679,680
 69 414 69 414 102 421 c 1,681,-1
 101 423 l 1,682,-1
 79 432 l 1,683,-1
 73 430 l 1,684,685
 70 431 70 431 68 438 c 1,686,-1
 65.5 438 l 2,687,688
 64 438 64 438 62 435 c 1,689,-1
 62 426 l 1,690,-1
 66 424 l 1,691,692
 63 415 63 415 37 414 c 0,693,694
 29 414 29 414 17 422 c 1,695,696
 20 438 20 438 44 446 c 1,697,-1
 46 446 l 2,698,699
 51 446 51 446 67 444 c 1,700,-1
 68 444 l 1,701,702
 70 457 70 457 78 485 c 0,703,704
 79 486 79 486 80.5 486 c 128,-1,705
 82 486 82 486 84 483 c 0,706,707
 81 477 81 477 78 465 c 1,708,709
 91 465 91 465 91 459 c 0,710,711
 90 452 90 452 84 454 c 0,712,713
 79.2914054645 458 79.2914054645 458 76 458 c 1,714,715
 74 453 74 453 74 450.125 c 2,716,-1
 74 445 l 2,717,718
 74 443 74 443 75 441 c 1,719,720
 92 435 92 435 126 418 c 1,721,-1
 130 422 l 1,722,-1
 91 437 l 1,723,-1
 91 438 l 2,724,725
 91 440 91 440 94 443 c 0,726,727
 93 447 93 447 93 452.5 c 128,-1,728
 93 458 93 458 97 466 c 1,729,730
 89 467 89 467 85 472 c 0,731,732
 85 476 85 476 86 477 c 0,733,734
 92 474 92 474 97 474 c 128,-1,735
 102 474 102 474 102 479 c 2,736,-1
 102 482 l 1,737,-1
 93 489 l 1,738,739
 96 488 96 488 101.5 488 c 128,-1,740
 107 488 107 488 116 491 c 0,741,742
 117 490 117 490 119 489 c 1,743,-1
 119 488 l 1,744,-1
 114 482 l 1,745,746
 118 478 118 478 130 469 c 1,747,-1
 130 470 l 2,748,749
 130 475 130 475 123 487 c 1,750,-1
 126 487 l 1,751,-1
 133 483 l 1,752,753
 135 485 135 485 135.882543858 484.91510277 c 2,754,-1
 136.024940243 484.913884273 l 0,755,756
 137 485 137 485 137 479.5 c 128,-1,757
 137 474 137 474 126 450 c 1,758,759
 130 450 130 450 139 447 c 1,760,761
 141 452 141 452 143 474 c 0,762,763
 145 475 145 475 146.5 475 c 128,-1,764
 148 475 148 475 148 474 c 0,765,766
 148 445 148 445 130 411 c 1,767,-1
 129 410 l 1,656,-1
162 401 m 0,768,769
 162 400 162 400 162 399 c 128,-1,770
 162 398 162 398 162.276315789 397.657375346 c 0,771,772
 162 394 162 394 158 394 c 0,773,774
 157 394 157 394 156 393 c 0,775,776
 151 394 151 394 144 396 c 0,777,778
 136 398 136 398 132 398 c 1,779,780
 138 402 138 402 149.040582726 401.612903226 c 0,781,782
 150 402 150 402 151.5 402 c 128,-1,783
 153 402 153 402 154.28 401.7 c 0,784,785
 158 402 158 402 162 401 c 0,768,769
164 3 m 1,786,787
 169 5 169 5 171.444444444 4.66666666667 c 1,788,-1
 172 5 l 1,789,-1
 174 4 l 2,790,791
 176 4 176 4 178 4 c 128,-1,792
 180 4 180 4 184 4 c 0,793,794
 187 4 187 4 190 5 c 0,795,796
 191 5 191 5 191.625 4.75 c 0,797,798
 194 5 194 5 196 4 c 1,799,800
 181 2 181 2 173.5 2 c 128,-1,801
 166 2 166 2 164 3 c 1,786,787
133 580 m 1,802,803
 137 577 137 577 137 575 c 128,-1,804
 137 573 137 573 134 572 c 0,805,806
 132 572 132 572 131 572 c 0,807,808
 127 572 127 572 126 576 c 1,809,-1
 133 580 l 1,802,803
132 429 m 1,810,811
 135 438 135 438 136 440 c 1,812,813
 132 442 132 442 128 444 c 0,814,815
 126.844155844 444.288961039 126.844155844 444.288961039 122 445 c 1,816,-1
 114 442 l 2,817,818
 108 439 108 439 105 439 c 1,819,820
 126 432 126 432 132 429 c 1,810,811
127 506 m 1,821,-1
 123 506 l 1,822,823
 116 511 116 511 103 522 c 0,824,825
 104 525 104 525 105.5 525 c 128,-1,826
 107 525 107 525 118 519 c 128,-1,827
 129 513 129 513 129 508 c 1,828,-1
 127 506 l 1,821,-1
119 579 m 1,829,830
 108 590 108 590 97 590 c 256,831,832
 86 590 86 590 86 582 c 0,833,834
 86 579 86 579 89 576 c 1,835,-1
 85 576 l 1,836,837
 80 574 80 574 75 566 c 1,838,839
 85 556 85 556 106 543 c 0,840,841
 110 542 110 542 110 539 c 0,842,843
 110 537 110 537 109 535 c 0,844,845
 105 535 105 535 88 546 c 0,846,847
 63 569 63 569 63 581 c 0,848,849
 63 594 63 594 98 597 c 1,850,851
 110 592 110 592 115 590 c 128,-1,852
 120 588 120 588 121 581 c 1,853,-1
 119 579 l 1,829,830
119 454 m 1,854,-1
 124 458 l 1,855,856
 118 470 118 470 115 474 c 0,857,858
 113 476 113 476 110.5 477 c 129,-1,859
 108 478 108 478 108 476 c 1,860,861
 118 466 118 466 119 454 c 1,854,-1
116 495 m 1,862,863
 108 497 108 497 98 505 c 0,864,865
 99 508 99 508 102 509 c 0,866,867
 103 508 103 508 112 504 c 0,868,869
 119 501 119 501 119 497 c 0,870,871
 119 496 119 496 119 495 c 1,872,-1
 116 495 l 1,862,863
115 398 m 0,873,874
 113 400 113 400 113 401 c 0,875,876
 114 402 114 402 117 402 c 0,877,878
 118 401 118 401 121 401 c 0,879,880
 122 401 122 401 124 401 c 0,881,882
 125 400 125 400 126 398 c 1,883,884
 122 399 122 399 120 399 c 0,885,886
 117 399 117 399 115 398 c 0,873,874
116 405 m 1,887,888
 113 405 113 405 109 399.5 c 128,-1,889
 105 394 105 394 96 391 c 1,890,891
 96 398 96 398 94 411 c 1,892,893
 101 411 101 411 112 416 c 0,894,895
 115 414 115 414 122 413 c 1,896,-1
 116 405 l 1,887,888
104 445 m 0,897,898
 109 445 109 445 114 449 c 1,899,-1
 111 451 l 2,900,901
 111 452 111 452 111 454 c 0,902,903
 111 464 111 464 104 468 c 1,904,905
 98 456 98 456 98 451 c 0,906,907
 98 445 98 445 104 445 c 0,897,898
80 498 m 258,908,-1
 83 508 l 1,909,-1
 83 508 l 1,910,911
 85 508 85 508 91 502 c 1,912,-1
 94 502 l 1,913,-1
 94 499 l 1,914,915
 74 485 74 485 61 485 c 0,916,917
 51 485 51 485 45 494 c 1,918,919
 47 509 47 509 65 513 c 1,920,-1
 66 513 l 1,921,922
 71 514 71 514 82 516 c 0,923,924
 88 517 88 517 93 518 c 1,925,-1
 93.34 517.9 l 2,926,927
 96 518 96 518 99 517 c 0,928,929
 99 515 99 515 97 512 c 0,930,931
 87 512 87 512 69 507.5 c 128,-1,932
 51 503 51 503 51 496 c 0,933,934
 51 494 51 494 58 492 c 0,935,936
 62 489 62 489 67 489 c 128,-1,937
 72 489 72 489 81 496 c 1,938,939
 80 497 80 497 80 498 c 258,908,-1
81 389 m 2,940,941
 75 389 75 389 63 395 c 1,942,943
 67 401 67 401 87 410 c 1,944,945
 89 408 89 408 88.8181818182 402.132231405 c 0,946,947
 89 402 89 402 89 401 c 128,-1,948
 89 400 89 400 88.8333333333 399.222222222 c 0,949,950
 89 395 89 395 88 390 c 1,951,-1
 81 389 l 2,940,941
53 421 m 1,952,953
 50 421 50 421 46 419 c 1,954,955
 47 421 47 421 46.8333333333 422.666666667 c 0,956,957
 47 423 47 423 47 423.5 c 128,-1,958
 47 424 47 424 46.8181818182 424.132231405 c 0,959,960
 47 427 47 427 45 432 c 1,961,962
 43 429 43 429 37 423 c 1,963,-1
 38 420 l 1,964,965
 33 420 33 420 25 424 c 1,966,967
 34 439 34 439 48 440 c 0,968,969
 51 440 51 440 56 437 c 0,970,971
 56 436 56 436 56 434 c 0,972,973
 56 429 56 429 53 421 c 1,952,953
322 739 m 1,974,-1
 320 716 l 1,975,976
 321 715 321 715 322.5 715 c 128,-1,977
 324 715 324 715 325 716 c 0,978,979
 325 725 325 725 331 740 c 1,980,-1
 331 741 l 1,981,-1
 337 742 l 1,982,-1
 336 732 l 258,983,984
 336 730 336 730 341 730 c 1,985,986
 344 734 344 734 344 741 c 1,987,-1
 348 741 l 1,988,-1
 343 727 l 1,989,990
 343 724 343 724 344 720 c 1,991,992
 349 722 349 722 350.5 728 c 128,-1,993
 352 734 352 734 354 736 c 0,994,995
 354 738 354 738 353 740 c 1,996,-1
 359 741 l 1,997,998
 357 738 357 738 357 734 c 128,-1,999
 357 730 357 730 361 725 c 1,1000,1001
 365 738 365 738 365 740 c 1,1002,1003
 366 740 366 740 367 740 c 0,1004,1005
 380 740 380 740 385 731 c 1,1006,1007
 387 732 387 732 388 732 c 0,1008,1009
 390 732 390 732 392 731 c 1,1010,1011
 390 730 390 730 387 727 c 0,1012,1013
 387 725 387 725 390 722 c 0,1014,1015
 392 721 392 721 393 721 c 128,-1,1016
 394 721 394 721 395 722 c 1,1017,-1
 394 723 l 1,1018,1019
 394 727 394 727 393 730 c 1,1020,1021
 396 730 396 730 413 718 c 1,1022,1023
 408 716 408 716 408 713 c 1,1024,-1
 405 716 l 1,1025,-1
 401 711 l 1,1026,1027
 401 719 401 719 398 723 c 1,1028,1029
 397 722 397 722 394 710 c 0,1030,1031
 395 707 395 707 396 707 c 128,-1,1032
 397 707 397 707 401 709 c 1,1033,1034
 401 708 401 708 401 707 c 0,1035,1036
 401 705 401 705 398 703 c 2,1037,-1
 391 700 l 1,1038,1039
 389 701 389 701 389 704 c 0,1040,1041
 389 705 389 705 389.5 707 c 128,-1,1042
 390 709 390 709 390 710 c 0,1043,1044
 390 712 390 712 388 713 c 1,1045,1046
 387 709 387 709 380 703 c 1,1047,1048
 384 699 384 699 383.851851852 697.502057613 c 2,1049,-1
 384 697 l 1,1050,-1
 384 696 l 1,1051,1052
 383 695 383 695 383 693 c 0,1053,1054
 383 692 383 692 383 690 c 1,1055,1056
 389 690 389 690 390 695 c 1,1057,-1
 391 695 l 2,1058,1059
 394 695 394 695 403 704 c 0,1060,1061
 406 709 406 709 408 709 c 2,1062,-1
 409 709 l 1,1063,-1
 421 704 l 1,1064,1065
 419 702 419 702 418.5 698.5 c 128,-1,1066
 418 695 418 695 413 692 c 1,1067,-1
 414 690 l 1,1068,1069
 418 690 418 690 420 690 c 0,1070,1071
 428 690 428 690 430 688 c 0,1072,1073
 438 671 438 671 438 659 c 128,-1,1074
 438 647 438 647 435.5 638 c 128,-1,1075
 433 629 433 629 428 606 c 1,1076,1077
 408 562 408 562 385 549 c 0,1078,1079
 381 543 381 543 366 538 c 2,1080,-1
 342 530 l 1,1081,1082
 328 524 328 524 316 524 c 0,1083,1084
 315 524 315 524 314 524 c 0,1085,1086
 302 524 302 524 273 530 c 1,1087,1088
 235 548 235 548 219 603 c 1,1089,-1
 218 620 l 1,1090,1091
 223 630 223 630 253 667 c 0,1092,1093
 262 678 262 678 292 699 c 0,1094,1095
 292 703 292 703 293 711 c 1,1096,1097
 290 713 290 713 289 713 c 2,1098,-1
 288 713 l 1,1099,1100
 286 717 286 717 282 724 c 1,1101,1102
 284 722 284 722 286 722 c 2,1103,-1
 288 722 l 1,1104,1105
 288 725 288 725 290 728 c 1,1106,1107
 292 720 292 720 301 710 c 1,1108,1109
 302 713 302 713 302 716.5 c 128,-1,1110
 302 720 302 720 298 726 c 1,1111,-1
 298 732 l 1,1112,1113
 299 732 299 732 300 732 c 0,1114,1115
 305 732 305 732 312 738 c 1,1116,-1
 314 738 l 1,1117,-1
 316 738 l 1,1118,1119
 313 732 313 732 313 727 c 0,1120,1121
 314 726 314 726 315 726 c 128,-1,1122
 316 726 316 726 318 727 c 0,1123,1124
 318 732 318 732 322 739 c 1,974,-1
324 553 m 0,1125,1126
 322 550 322 550 316 550 c 2,1127,-1
 305 550 l 2,1128,1129
 292 550 292 550 267 552 c 1,1130,1131
 266 555 266 555 264 561 c 1,1132,1133
 267 562 267 562 267 566 c 1,1134,1135
 284 566 284 566 320 562 c 1,1136,-1
 319 565 l 1,1137,1138
 308 575 308 575 280 582 c 0,1139,1140
 278 580 278 580 278 574 c 1,1141,-1
 274 570 l 1,1142,1143
 274 575 274 575 270 582 c 1,1144,1145
 267 579 267 579 262 579 c 256,1146,1147
 256 579 256 579 247 585 c 0,1148,1149
 247 586 247 586 247 587 c 0,1150,1151
 247 591 247 591 252 596 c 1,1152,1153
 259 597 259 597 273 600 c 1,1154,-1
 294 596 l 1,1155,1156
 306 592 306 592 330 568 c 0,1157,1158
 330 566 330 566 326 562 c 0,1159,1160
 323 559 323 559 323.3 556.375 c 0,1161,1162
 323 556 323 556 323 555.5 c 128,-1,1163
 323 555 323 555 323.25 554.90625 c 0,1164,1165
 323 554 323 554 324 553 c 0,1125,1126
296 632 m 1,1166,1167
 287 635 287 635 287 637 c 2,1168,-1
 287 638 l 1,1169,1170
 295 647 295 647 299 647 c 2,1171,-1
 300 647 l 1,1172,1173
 303 644 303 644 303 640 c 128,-1,1174
 303 636 303 636 296 632 c 1,1166,1167
278 632 m 1,1175,-1
 277 632 l 2,1176,1177
 272 632 272 632 269 638 c 0,1178,1179
 269 642 269 642 274 648 c 0,1180,1181
 277 647 277 647 283 640 c 0,1182,1183
 282 637 282 637 278 632 c 1,1175,-1
280 558 m 1,1184,1185
 284 559 284 559 290 559 c 128,-1,1186
 296 559 296 559 302 558 c 1,1187,1188
 296 558 296 558 290 558 c 128,-1,1189
 284 558 284 558 280 558 c 1,1184,1185
408 600 m 1,1190,1191
 406 601 406 601 402 602 c 1,1192,-1
 405 605 l 1,1193,-1
 384 663 l 2,1194,1195
 375 689 375 689 355 717 c 0,1196,1197
 355 720 355 720 357 722 c 1,1198,1199
 361 716 361 716 370 708 c 1,1200,1201
 374 714 374 714 380 727 c 1,1202,-1
 381 728 l 2,1203,1204
 382 728 382 728 383 727 c 0,1205,1206
 383 719 383 719 377 715 c 1,1207,1208
 377 710 377 710 373 701 c 1,1209,-1
 409 607 l 2,1210,1211
 409 606 409 606 409 605 c 0,1212,1213
 409 603 409 603 408 600 c 1,1190,1191
395 606 m 1,1214,1215
 394 610 394 610 391 615 c 128,-1,1216
 388 620 388 620 384.5 632 c 128,-1,1217
 381 644 381 644 370.5 665 c 128,-1,1218
 360 686 360 686 355 697 c 0,1219,1220
 350 702 350 702 342 714 c 0,1221,1222
 344 716 344 716 346 716 c 0,1223,1224
 354 711 354 711 369 679.5 c 128,-1,1225
 384 648 384 648 396 607 c 1,1226,-1
 395 606 l 1,1214,1215
378 602 m 1,1227,1228
 372 621 372 621 360 660 c 1,1229,1230
 344 693 344 693 330 709 c 1,1231,-1
 332 722 l 2,1232,1233
 332 723 332 723 335 723 c 1,1234,1235
 334 721 334 721 334 718 c 128,-1,1236
 334 715 334 715 335 711 c 1,1237,1238
 346 698 346 698 352 682 c 1,1239,-1
 366 656 l 1,1240,1241
 366 652 366 652 377 632 c 0,1242,1243
 383 621 383 621 383 614 c 128,-1,1244
 383 607 383 607 378 602 c 1,1227,1228
422 676 m 1,1245,-1
 422 681 l 1,1246,-1
 423 681 l 2,1247,1248
 425 681 425 681 427 680 c 0,1249,1250
 426 676 426 676 423 676 c 2,1251,-1
 422 676 l 1,1245,-1
EndSplineSet
Validated: 5
EndChar

StartChar: A
Encoding: 65 65 36
Width: 541
Flags: W
LayerCount: 2
Back
Fore
SplineSet
498 -18 m 0,0,1
 441 -18 441 -18 428 91 c 1,2,3
 398 41 398 41 348 11.5 c 128,-1,4
 298 -18 298 -18 240 -18 c 0,5,6
 148 -18 148 -18 85.5 45 c 128,-1,7
 23 108 23 108 23 200 c 0,8,9
 23 291 23 291 86 354 c 128,-1,10
 149 417 149 417 240 417 c 0,11,12
 305 417 305 417 363 378 c 0,13,14
 371 373 371 373 371 364 c 0,15,16
 371 346 371 346 353 346 c 0,17,18
 347 346 347 346 343 349 c 0,19,20
 296 382 296 382 240 382 c 0,21,22
 164 382 164 382 111 329 c 128,-1,23
 58 276 58 276 58 200 c 256,24,25
 58 124 58 124 111 71 c 128,-1,26
 164 18 164 18 240 18 c 256,27,28
 316 18 316 18 369 71 c 128,-1,29
 422 124 422 124 422 200 c 1,30,-1
 457 200 l 1,31,32
 462 18 462 18 498 18 c 0,33,34
 516 18 516 18 516 0 c 256,35,36
 516 -18 516 -18 498 -18 c 0,0,1
412 457 m 2,37,-1
 412 447 l 2,38,39
 412 398 412 398 431 383 c 0,40,41
 451 367 451 367 508 354 c 1,42,-1
 300 158 l 2,43,44
 295 153 295 153 288 153 c 0,45,46
 270 153 270 153 270 171 c 0,47,48
 270 178 270 178 276 184 c 2,49,-1
 439 337 l 1,50,51
 377 365 377 365 377 447 c 0,52,53
 377 457 l 2,54,55
 377 473 377 473 394.5 473 c 128,-1,56
 412 473 412 473 412 457 c 2,37,-1
EndSplineSet
Validated: 1
EndChar

StartChar: B
Encoding: 66 66 37
Width: 583
Flags: W
LayerCount: 2
Back
Fore
SplineSet
209 420 m 0,0,1
 209 438 209 438 226 438 c 0,2,3
 232 438 232 438 236 435 c 0,4,5
 284 402 284 402 340 402 c 0,6,7
 416 402 416 402 469 455 c 128,-1,8
 522 508 522 508 522 584 c 256,9,10
 522 660 522 660 469 713 c 128,-1,11
 416 766 416 766 340 766 c 256,12,13
 264 766 264 766 211 713 c 128,-1,14
 158 660 158 660 158 584 c 1,15,-1
 123 584 l 1,16,17
 118 766 118 766 81 766 c 0,18,19
 64 766 64 766 64 784 c 256,20,21
 64 802 64 802 81 802 c 0,22,23
 139 802 139 802 152 693 c 1,24,25
 182 743 182 743 232 772.5 c 128,-1,26
 282 802 282 802 340 802 c 0,27,28
 432 802 432 802 494.5 739 c 128,-1,29
 557 676 557 676 557 584 c 0,30,31
 557 495 557 495 494 431 c 0,32,33
 465 401 465 401 426 385 c 1,34,35
 465 368 465 368 494 338 c 0,36,37
 557 274 557 274 557 185 c 0,38,39
 557 93 557 93 494.5 30 c 128,-1,40
 432 -33 432 -33 340 -33 c 0,41,42
 185 -33 185 -33 117 96 c 1,43,44
 102 -33 102 -33 46 -33 c 0,45,46
 29 -33 29 -33 29 -15 c 256,47,48
 29 3 29 3 46 3 c 0,49,50
 88 3 88 3 88 195 c 2,51,-1
 88 448 l 1,52,-1
 279 626 l 2,53,54
 284 631 284 631 291 631 c 0,55,56
 309 631 309 631 309 613 c 0,57,58
 309 606 309 606 303 600 c 2,59,-1
 125 432 l 1,60,-1
 125 205 l 2,61,62
 125 127 125 127 177 76 c 0,63,64
 205 49 205 49 254 26 c 128,-1,65
 303 3 303 3 340 3 c 0,66,67
 416 3 416 3 469 56 c 128,-1,68
 522 109 522 109 522 185 c 256,69,70
 522 261 522 261 469 314 c 128,-1,71
 416 367 416 367 340 367 c 0,72,73
 284 367 284 367 236 334 c 0,74,75
 232 331 232 331 226 331 c 0,76,77
 209 331 209 331 209 349 c 0,78,79
 209 358 209 358 216 363 c 0,80,81
 234 376 234 376 256 385 c 1,82,83
 209 406 209 406 209 420 c 0,0,1
EndSplineSet
Validated: 1
EndChar

StartChar: C
Encoding: 67 67 38
Width: 419
Flags: W
LayerCount: 2
Back
Fore
SplineSet
236 382 m 0,0,1
 160 382 160 382 107 329 c 128,-1,2
 54 276 54 276 54 200 c 256,3,4
 54 124 54 124 107 71 c 128,-1,5
 160 18 160 18 236 18 c 0,6,7
 333 18 333 18 388 99 c 0,8,9
 393 107 393 107 402 107 c 0,10,11
 420 107 420 107 420 89 c 0,12,13
 420 84 420 84 417 80 c 0,14,15
 352 -18 352 -18 236 -18 c 0,16,17
 144 -18 144 -18 81.5 45 c 128,-1,18
 19 108 19 108 19 200 c 0,19,20
 19 291 19 291 82 354 c 128,-1,21
 145 417 145 417 236 417 c 0,22,23
 319 417 319 417 368 373 c 0,24,25
 379 363 379 363 374 352 c 2,26,-1
 319 269 l 2,27,28
 314 261 314 261 306 261 c 0,29,30
 287 261 287 261 287 279 c 0,31,32
 287 284 287 284 291 289 c 2,33,-1
 335 356 l 1,34,35
 300 382 300 382 236 382 c 0,0,1
EndSplineSet
Validated: 1
EndChar

StartChar: D
Encoding: 68 68 39
Width: 542
Flags: W
LayerCount: 2
Back
Fore
SplineSet
484 -18 m 0,0,1
 427 -18 427 -18 414 91 c 1,2,3
 384 41 384 41 334 11.5 c 128,-1,4
 284 -18 284 -18 226 -18 c 0,5,6
 134 -18 134 -18 71.5 45 c 128,-1,7
 9 108 9 108 9 200 c 0,8,9
 9 291 9 291 72 354 c 128,-1,10
 135 417 135 417 226 417 c 0,11,12
 294 417 294 417 349 378 c 0,13,14
 357 372 357 372 357 364 c 0,15,16
 357 346 357 346 340 346 c 0,17,18
 333 346 333 346 329 349 c 0,19,20
 282 382 282 382 226 382 c 0,21,22
 150 382 150 382 97 329 c 128,-1,23
 44 276 44 276 44 200 c 256,24,25
 44 124 44 124 97 71 c 128,-1,26
 150 18 150 18 226 18 c 256,27,28
 302 18 302 18 355 71 c 128,-1,29
 408 124 408 124 408 200 c 1,30,-1
 443 200 l 1,31,32
 448 18 448 18 484 18 c 0,33,34
 502 18 502 18 502 0 c 256,35,36
 502 -18 502 -18 484 -18 c 0,0,1
262 184 m 2,37,-1
 441 352 l 1,38,-1
 441 832 l 1,39,40
 471 793 471 793 474 790 c 0,41,42
 491 773 491 773 519 768 c 0,43,44
 526 767 526 767 536 770 c 0,45,46
 540 771 540 771 542 771 c 0,47,48
 555 770 555 770 557 757 c 0,49,50
 558 741 558 741 543 736 c 0,51,52
 530 733 530 733 513.776859504 733.090909091 c 0,53,54
 491 733 491 733 476 742 c 1,55,-1
 476 336 l 1,56,-1
 286 158 l 2,57,58
 281 153 281 153 274 153 c 0,59,60
 257 153 257 153 257 171 c 0,61,62
 257 179 257 179 262 184 c 2,37,-1
EndSplineSet
Validated: 524321
EndChar

StartChar: E
Encoding: 69 69 40
Width: 433
Flags: W
LayerCount: 2
Back
Fore
SplineSet
420 80 m 0,0,1
 355 -18 355 -18 239 -18 c 0,2,3
 147 -18 147 -18 84.5 45 c 128,-1,4
 22 108 22 108 22 200 c 0,5,6
 22 291 22 291 85 354 c 128,-1,7
 148 417 148 417 239 417 c 0,8,9
 285 417 285 417 315 404 c 0,10,11
 342 392 342 392 378 360 c 1,12,-1
 201 142 l 1,13,14
 203 125 203 125 226 113 c 0,15,16
 245 103 245 103 265 103 c 0,17,18
 271 103 271 103 286 108 c 128,-1,19
 301 113 301 113 308 113 c 0,20,21
 322 113 322 113 322 95 c 0,22,23
 322 69 322 69 265 69 c 0,24,25
 224 69 224 69 195 91 c 0,26,27
 162 115 162 115 167 155 c 1,28,-1
 329 355 l 1,29,30
 293 382 293 382 239 382 c 0,31,32
 163 382 163 382 110 329 c 128,-1,33
 57 276 57 276 57 200 c 256,34,35
 57 124 57 124 110 71 c 128,-1,36
 163 18 163 18 239 18 c 0,37,38
 337 18 337 18 391 99 c 0,39,40
 397 108 397 108 405 108 c 0,41,42
 423 108 423 108 423 90 c 0,43,44
 423 85 423 85 420 80 c 0,0,1
EndSplineSet
Validated: 33
EndChar

StartChar: F
Encoding: 70 70 41
Width: 417
Flags: W
LayerCount: 2
Back
Fore
SplineSet
160 479 m 0,0,1
 73 527 73 527 73 625 c 0,2,3
 73 696 73 696 121.5 744 c 128,-1,4
 170 792 170 792 241 792 c 0,5,6
 307 792 307 792 356 747.5 c 128,-1,7
 405 703 405 703 405 637 c 0,8,9
 405 610 405 610 396 583 c 1,10,-1
 439 551 l 2,11,12
 447 545 447 545 447 536 c 0,13,14
 447 519 447 519 431 519 c 0,15,16
 424 519 424 519 419 523 c 2,17,-1
 352 572 l 1,18,19
 368 604 368 604 368 636 c 0,20,21
 368 688 368 688 329 723 c 128,-1,22
 290 758 290 758 237 758 c 0,23,24
 163 758 163 758 125 689 c 0,25,26
 109 660 109 660 109 626 c 0,27,28
 109 553 109 553 169 514 c 1,29,-1
 169 638 l 2,30,31
 169 655 169 655 187 655 c 256,32,33
 205 655 205 655 205 638 c 2,34,-1
 205 338 l 1,35,-1
 311 338 l 2,36,37
 328 338 328 338 328 321 c 0,38,39
 328 303 328 303 311 303 c 2,40,-1
 205 303 l 1,41,-1
 205 -5 l 2,42,43
 205 -22 205 -22 187 -22 c 256,44,45
 169 -22 169 -22 169 -5 c 2,46,-1
 169 303 l 1,47,-1
 88 303 l 1,48,49
 96 283 96 283 96 263 c 0,50,51
 96 221 96 221 49 177 c 0,52,53
 44 172 44 172 37 172 c 0,54,55
 19 172 19 172 19 190 c 0,56,57
 19 196 19 196 25 202 c 0,58,59
 61 236 61 236 61 264 c 0,60,61
 61 284 61 284 26 338 c 1,62,-1
 169 338 l 1,63,-1
 169 475 l 2,64,65
 167 475 167 475 160 479 c 0,0,1
EndSplineSet
Validated: 1
EndChar

StartChar: G
Encoding: 71 71 42
Width: 623
Flags: W
LayerCount: 2
Back
Fore
SplineSet
335 -21 m 1,0,1
 388 12 388 12 451 12 c 0,2,3
 559 12 559 12 624 -74 c 0,4,5
 668 -132 668 -132 668 -204 c 0,6,7
 668 -313 668 -313 581 -378 c 0,8,9
 522 -422 522 -422 452 -422 c 0,10,11
 364 -422 364 -422 300.5 -362 c 128,-1,12
 237 -302 237 -302 234 -214 c 0,13,14
 233 -195 233 -195 251 -195 c 0,15,16
 268 -195 268 -195 269 -212 c 0,17,18
 272 -286 272 -286 325 -336.5 c 128,-1,19
 378 -387 378 -387 452 -387 c 0,20,21
 511 -387 511 -387 560 -350 c 0,22,23
 633 -295 633 -295 633 -205 c 0,24,25
 633 -144 633 -144 596 -95 c 0,26,27
 542 -23 542 -23 458 -23 c 0,28,29
 389 -23 389 -23 326 -70 c 1,30,-1
 283 -5 l 1,31,32
 250 -18 250 -18 208 -18 c 0,33,34
 116 -18 116 -18 53.5 45 c 128,-1,35
 -9 108 -9 108 -9 200 c 0,36,37
 -9 291 -9 291 54 354 c 128,-1,38
 117 417 117 417 208 417 c 0,39,40
 268 417 268 417 319 386 c 1,41,-1
 377 443 l 2,42,43
 383 449 383 449 390 449 c 0,44,45
 407 449 407 449 407 430 c 0,46,47
 407 423 407 423 402 417 c 2,48,-1
 323 341 l 1,49,50
 265 382 265 382 208 382 c 0,51,52
 132 382 132 382 79 329 c 128,-1,53
 26 276 26 276 26 200 c 256,54,55
 26 124 26 124 79 71 c 128,-1,56
 132 18 132 18 208 18 c 0,57,58
 237 18 237 18 263 26 c 1,59,-1
 176 155 l 2,60,61
 173 159 173 159 173 165 c 0,62,63
 173 184 173 184 191 184 c 0,64,65
 199 184 199 184 205 175 c 2,66,-1
 295 39 l 1,67,68
 390 92 390 92 390 200 c 0,69,70
 390 217 390 217 407 217 c 0,71,72
 425 217 425 217 425 200 c 0,73,74
 425 141 425 141 395.5 90.5 c 128,-1,75
 366 40 366 40 315 11 c 1,76,-1
 335 -21 l 1,0,1
EndSplineSet
Validated: 1
EndChar

StartChar: H
Encoding: 72 72 43
Width: 458
Flags: W
LayerCount: 2
Back
Fore
SplineSet
117 133 m 2,0,1
 54 238 l 1,2,-1
 54 12 l 2,3,4
 54 -5 54 -5 36 -5 c 0,5,6
 19 -5 19 -5 19 12 c 2,7,-1
 19 759 l 2,8,9
 19 776 19 776 36 776 c 0,10,11
 54 776 54 776 54 759 c 2,12,-1
 54 288 l 1,13,14
 119 348 119 348 203 348 c 0,15,16
 294 348 294 348 357 285 c 128,-1,17
 420 222 420 222 420 131 c 0,18,19
 420 4 420 4 330 -54 c 1,20,-1
 351 -88 l 2,21,22
 355 -93 355 -93 355 -99 c 0,23,24
 355 -118 355 -118 338 -118 c 0,25,26
 329 -118 329 -118 321 -106 c 2,27,-1
 280 -41 l 1,28,29
 385 11 385 11 385 131 c 0,30,31
 385 206 385 206 332 259.5 c 128,-1,32
 279 313 279 313 203 313 c 0,33,34
 131 313 131 313 78 264 c 1,35,-1
 147 151 l 2,36,37
 151 144 151 144 151 139 c 0,38,39
 151 122 151 122 134 122 c 0,40,41
 124 122 124 122 117 133 c 2,0,1
EndSplineSet
Validated: 1
EndChar

StartChar: I
Encoding: 73 73 44
Width: 296
Flags: W
LayerCount: 2
Back
Fore
SplineSet
154 387 m 1,0,1
 107 344 107 344 43 341 c 0,2,3
 25 340 25 340 25 358 c 0,4,5
 25 374 25 374 41 375 c 0,6,7
 90 377 90 377 126 408 c 0,8,9
 133 414 133 414 189 476 c 1,10,-1
 189 18 l 1,11,-1
 292 18 l 2,12,13
 310 18 310 18 310 0 c 256,14,15
 310 -18 310 -18 292 -18 c 2,16,-1
 44 -18 l 2,17,18
 27 -18 27 -18 27 0 c 256,19,20
 27 18 27 18 44 18 c 2,21,-1
 154 18 l 1,22,-1
 154 387 l 1,0,1
177 572 m 0,23,24
 113 540 113 540 113 504 c 0,25,26
 113 481 113 481 133 443 c 0,27,28
 135 438 135 438 135 434 c 0,29,30
 135 417 135 417 117 417 c 0,31,32
 107 417 107 417 102 427 c 0,33,34
 78 473 78 473 78 505 c 0,35,36
 78 562 78 562 161 604 c 0,37,38
 166 606 166 606 170 606 c 0,39,40
 187 606 187 606 187 589 c 0,41,42
 187 577 187 577 177 572 c 0,23,24
EndSplineSet
Validated: 1
EndChar

StartChar: J
Encoding: 74 74 45
Width: 324
Flags: W
LayerCount: 2
Back
Fore
SplineSet
240 -60 m 2,0,1
 240 -77 240 -77 222 -77 c 0,2,3
 205 -77 205 -77 205 -60 c 2,4,-1
 205 393 l 1,5,6
 139 343 139 343 94 341 c 0,7,8
 76 340 76 340 76 358 c 0,9,10
 76 374 76 374 93 375 c 0,11,12
 138 377 138 377 240 470 c 1,13,-1
 240 61 l 1,14,15
 280 46 280 46 305 10 c 128,-1,16
 330 -26 330 -26 330 -69 c 0,17,18
 330 -134 330 -134 277 -175 c 0,19,20
 239 -205 239 -205 194 -205 c 0,21,22
 138 -205 138 -205 96.5 -164.5 c 128,-1,23
 55 -124 55 -124 55 -68 c 0,24,25
 55 -47 55 -47 62 -26 c 1,26,27
 55 -27 55 -27 49 -27 c 0,28,29
 24 -27 24 -27 24 -10 c 0,30,31
 24 4 24 4 40 6 c 0,32,33
 66 9 66 9 109 41 c 1,34,-1
 130 13 l 1,35,36
 90 -18 90 -18 90 -64 c 0,37,38
 90 -106 90 -106 120.5 -138.5 c 128,-1,39
 151 -171 151 -171 193 -171 c 0,40,41
 227 -171 227 -171 256 -148 c 0,42,43
 295 -117 295 -117 295 -69 c 0,44,45
 295 -6 295 -6 240 23 c 1,46,-1
 240 -60 l 2,0,1
223 582 m 0,47,48
 159 550 159 550 159 514 c 0,49,50
 159 491 159 491 179 453 c 0,51,52
 181 449 181 449 181 445 c 0,53,54
 181 427 181 427 163 427 c 0,55,56
 153 427 153 427 148 437 c 0,57,58
 124 481 124 481 124 515 c 0,59,60
 124 572 124 572 208 614 c 0,61,62
 212 616 212 616 216 616 c 0,63,64
 233 616 233 616 233 597 c 0,65,66
 233 587 233 587 223 582 c 0,47,48
EndSplineSet
Validated: 1
EndChar

StartChar: K
Encoding: 75 75 46
Width: 351
Flags: W
LayerCount: 2
Back
Fore
SplineSet
71 198 m 0,0,1
 71 235 71 235 84 272 c 1,2,-1
 64 256 l 1,3,-1
 64 0 l 2,4,5
 64 -17 64 -17 47 -17 c 0,6,7
 29 -17 29 -17 29 0 c 2,8,-1
 29 776 l 2,9,10
 29 793 29 793 47 793 c 0,11,12
 64 793 64 793 64 776 c 2,13,-1
 64 301 l 1,14,-1
 252 442 l 1,15,-1
 207 493 l 2,16,17
 202 499 202 499 202 505 c 0,18,19
 202 523 202 523 220 523 c 0,20,21
 228 523 228 523 233 517 c 2,22,-1
 304 436 l 1,23,24
 240 389 240 389 217 372 c 0,25,26
 154 324 154 324 138 301 c 0,27,28
 106 255 106 255 106 198 c 0,29,30
 106 122 106 122 159 69 c 128,-1,31
 212 16 212 16 288 16 c 0,32,33
 306 16 306 16 306 -1 c 0,34,35
 306 -19 306 -19 288 -19 c 0,36,37
 196 -19 196 -19 133.5 43.5 c 128,-1,38
 71 106 71 106 71 198 c 0,0,1
EndSplineSet
Validated: 1
EndChar

StartChar: L
Encoding: 76 76 47
Width: 239
Flags: W
LayerCount: 2
Back
Fore
SplineSet
47 685 m 0,0,1
 82 682 82 682 105 707 c 1,2,3
 124 734 124 734 144 762 c 1,4,-1
 144 41 l 1,5,6
 158 48 158 48 175 48 c 0,7,8
 213 48 213 48 242 19 c 0,9,10
 248 13 248 13 248 6 c 0,11,12
 248 -12 248 -12 230 -12 c 0,13,14
 223 -12 223 -12 218 -7 c 0,15,16
 198 13 198 13 179 13 c 256,17,18
 160 13 160 13 141 -6 c 0,19,20
 134 -11 134 -11 109 -42 c 1,21,-1
 109 665 l 1,22,23
 85 647 85 647 44 651 c 0,24,25
 28 652 28 652 28 668 c 0,26,27
 28 687 28 687 47 685 c 0,0,1
EndSplineSet
Validated: 33
EndChar

StartChar: M
Encoding: 77 77 48
Width: 791
Flags: W
LayerCount: 2
Back
Fore
SplineSet
342 27 m 1,0,-1
 358 -48 l 2,1,2
 362 -69 362 -69 340 -69 c 0,3,4
 327 -69 327 -69 324 -55 c 2,5,-1
 302 48 l 1,6,7
 428 100 428 100 428 222 c 0,8,9
 428 320 428 320 345 374 c 0,10,11
 298 405 298 405 242 405 c 0,12,13
 146 405 146 405 94 325 c 0,14,15
 64 279 64 279 64 227 c 0,16,17
 64 129 64 129 147 74 c 0,18,19
 155 69 155 69 155 60 c 0,20,21
 155 41 155 41 138 41 c 0,22,23
 133 41 133 41 128 44 c 0,24,25
 90 69 90 69 65 106 c 1,26,-1
 65 0 l 2,27,28
 65 -17 65 -17 48 -17 c 0,29,30
 30 -17 30 -17 30 0 c 2,31,-1
 30 409 l 2,32,33
 30 426 30 426 48 426 c 0,34,35
 65 426 65 426 65 409 c 2,36,-1
 65 345 l 1,37,38
 127 440 127 440 242 440 c 0,39,40
 334 440 334 440 400 375 c 1,41,42
 464 439 464 439 554 439 c 0,43,44
 617 439 617 439 671 404 c 0,45,46
 770 340 770 340 770 224 c 0,47,48
 770 161 770 161 737.5 107.5 c 128,-1,49
 705 54 705 54 649 27 c 1,50,-1
 665 -53 l 2,51,52
 669 -74 669 -74 647 -74 c 0,53,54
 634 -74 634 -74 631 -59 c 2,55,-1
 609 48 l 1,56,57
 737 101 737 101 737 222 c 0,58,59
 737 297 737 297 680.5 351 c 128,-1,60
 624 405 624 405 549 405 c 0,61,62
 477 405 477 405 423 349 c 1,63,64
 463 294 463 294 463 224 c 0,65,66
 463 161 463 161 430.5 107.5 c 128,-1,67
 398 54 398 54 342 27 c 1,0,-1
EndSplineSet
Validated: 1
EndChar

StartChar: N
Encoding: 78 78 49
Width: 486
Flags: W
LayerCount: 2
Back
Fore
SplineSet
128 44 m 0,0,1
 90 69 90 69 66 107 c 1,2,-1
 66 0 l 2,3,4
 66 -17 66 -17 48 -17 c 0,5,6
 31 -17 31 -17 31 0 c 2,7,-1
 31 409 l 2,8,9
 31 426 31 426 48 426 c 0,10,11
 66 426 66 426 66 409 c 2,12,-1
 65 345 l 1,13,14
 129 444 129 444 246 444 c 0,15,16
 310 444 310 444 365 408 c 0,17,18
 463 344 463 344 463 229 c 0,19,20
 463 166 463 166 430.5 113 c 128,-1,21
 398 60 398 60 342 32 c 1,22,-1
 358 -48 l 2,23,24
 362 -69 362 -69 341 -69 c 0,25,26
 327 -69 327 -69 324 -55 c 2,27,-1
 302 53 l 1,28,29
 428 105 428 105 428 226 c 0,30,31
 428 326 428 326 346 379 c 0,32,33
 301 408 301 408 247 408 c 0,34,35
 148 408 148 408 94 325 c 0,36,37
 64 279 64 279 64 227 c 0,38,39
 64 128 64 128 147 74 c 0,40,41
 156 68 156 68 156 60 c 0,42,43
 156 41 156 41 138 41 c 0,44,45
 133 41 133 41 128 44 c 0,0,1
EndSplineSet
Validated: 1
EndChar

StartChar: O
Encoding: 79 79 50
Width: 460
Flags: W
LayerCount: 2
Back
Fore
SplineSet
119 179 m 2,0,-1
 282 413 l 1,1,2
 363 394 363 394 412.5 337 c 128,-1,3
 462 280 462 280 462 199 c 0,4,5
 462 107 462 107 399.5 44.5 c 128,-1,6
 337 -18 337 -18 245 -18 c 256,7,8
 153 -18 153 -18 90.5 44.5 c 128,-1,9
 28 107 28 107 28 199 c 256,10,11
 28 291 28 291 90.5 353.5 c 128,-1,12
 153 416 153 416 245 416 c 0,13,14
 262 416 262 416 262 398 c 0,15,16
 262 381 262 381 245 381 c 0,17,18
 169 381 169 381 116 328 c 128,-1,19
 63 275 63 275 63 199 c 256,20,21
 63 123 63 123 116 70 c 128,-1,22
 169 17 169 17 245 17 c 256,23,24
 321 17 321 17 374 70 c 128,-1,25
 427 123 427 123 427 199 c 0,26,27
 427 260 427 260 391 308 c 128,-1,28
 355 356 355 356 297 373 c 1,29,-1
 148 159 l 2,30,31
 142 151 142 151 134 151 c 0,32,33
 116 151 116 151 116 169 c 0,34,35
 116 175 116 175 119 179 c 2,0,-1
EndSplineSet
Validated: 1
EndChar

StartChar: P
Encoding: 80 80 51
Width: 559
Flags: W
LayerCount: 2
Back
Fore
SplineSet
79 426 m 0,0,1
 136 426 136 426 149 317 c 1,2,3
 179 367 179 367 229 396.5 c 128,-1,4
 279 426 279 426 337 426 c 0,5,6
 428 426 428 426 491 363 c 128,-1,7
 554 300 554 300 554 209 c 0,8,9
 554 117 554 117 491.5 54 c 128,-1,10
 429 -9 429 -9 337 -9 c 0,11,12
 269 -9 269 -9 214 30 c 0,13,14
 206 36 206 36 206 44 c 0,15,16
 206 62 206 62 223 62 c 0,17,18
 230 62 230 62 234 59 c 0,19,20
 281 27 281 27 337 27 c 0,21,22
 413 27 413 27 466 80 c 128,-1,23
 519 133 519 133 519 209 c 256,24,25
 519 285 519 285 466 338 c 128,-1,26
 413 391 413 391 337 391 c 256,27,28
 261 391 261 391 208 338 c 128,-1,29
 155 285 155 285 155 209 c 1,30,-1
 120 208 l 1,31,32
 115 391 115 391 79 391 c 0,33,34
 61 391 61 391 61 408 c 0,35,36
 61 426 61 426 79 426 c 0,0,1
300 224 m 2,37,-1
 122 56 l 1,38,-1
 122 -326 l 1,39,-1
 88 -282 l 2,40,41
 70 -263 70 -263 45 -263 c 0,42,43
 35 -263 35 -263 28 -264 c 0,44,45
 7 -267 7 -267 7 -247 c 0,46,47
 7 -233 7 -233 22 -230 c 0,48,49
 64 -223 64 -223 87 -236 c 1,50,-1
 87 72 l 1,51,-1
 277 250 l 2,52,53
 282 255 282 255 288 255 c 0,54,55
 306 255 306 255 306 237 c 0,56,57
 306 230 306 230 300 224 c 2,37,-1
EndSplineSet
Validated: 33
EndChar

StartChar: Q
Encoding: 81 81 52
Width: 548
Flags: W
LayerCount: 2
Back
Fore
SplineSet
483 391 m 0,0,1
 447 391 447 391 441 208 c 1,2,-1
 407 209 l 1,3,4
 407 285 407 285 354 338 c 128,-1,5
 301 391 301 391 225 391 c 256,6,7
 149 391 149 391 96 338 c 128,-1,8
 43 285 43 285 43 209 c 256,9,10
 43 133 43 133 96 80 c 128,-1,11
 149 27 149 27 225 27 c 0,12,13
 280 27 280 27 328 59 c 0,14,15
 332 62 332 62 338 62 c 0,16,17
 356 62 356 62 356 44 c 0,18,19
 356 35 356 35 348 30 c 0,20,21
 290 -9 290 -9 225 -9 c 0,22,23
 133 -9 133 -9 70.5 54 c 128,-1,24
 8 117 8 117 8 209 c 0,25,26
 8 300 8 300 71 363 c 128,-1,27
 134 426 134 426 225 426 c 0,28,29
 283 426 283 426 333 396.5 c 128,-1,30
 383 367 383 367 412 317 c 1,31,32
 426 426 426 426 483 426 c 0,33,34
 500 426 500 426 500 408 c 0,35,36
 500 391 500 391 483 391 c 0,0,1
285 250 m 2,37,-1
 475 72 l 1,38,-1
 475 -236 l 1,39,40
 498 -222 498 -222 540 -230 c 0,41,42
 554 -233 554 -233 554 -247 c 0,43,44
 554 -268 554 -268 533 -264 c 0,45,46
 528 -263 528 -263 516 -263 c 0,47,48
 491 -263 491 -263 473 -282 c 0,49,50
 456 -304 456 -304 440 -326 c 1,51,-1
 440 56 l 1,52,-1
 261 224 l 2,53,54
 255 230 255 230 255 237 c 0,55,56
 255 255 255 255 273 255 c 0,57,58
 280 255 280 255 285 250 c 2,37,-1
EndSplineSet
Validated: 33
EndChar

StartChar: R
Encoding: 82 82 53
Width: 409
Flags: W
LayerCount: 2
Back
Fore
SplineSet
403 314 m 0,0,1
 405 310 405 310 405 306 c 0,2,3
 405 289 405 289 386 289 c 0,4,5
 376 289 376 289 371 300 c 0,6,7
 348 348 348 348 303 376.5 c 128,-1,8
 258 405 258 405 204 405 c 0,9,10
 114 405 114 405 60 332 c 1,11,-1
 114 258 l 2,12,13
 117 253 117 253 117 248 c 0,14,15
 117 230 117 230 99 230 c 0,16,17
 91 230 91 230 85 238 c 2,18,-1
 46 292 l 1,19,-1
 46 0 l 2,20,21
 46 -17 46 -17 29 -17 c 0,22,23
 11 -17 11 -17 11 0 c 2,24,-1
 11 409 l 2,25,26
 11 426 11 426 29 426 c 0,27,28
 46 426 46 426 46 409 c 2,29,-1
 46 368 l 1,30,31
 114 440 114 440 209 440 c 0,32,33
 273 440 273 440 324.5 406.5 c 128,-1,34
 376 373 376 373 403 314 c 0,0,1
EndSplineSet
Validated: 1
EndChar

StartChar: S
Encoding: 83 83 54
Width: 359
Flags: W
LayerCount: 2
Back
Fore
SplineSet
172 180 m 0,0,1
 110 180 110 180 67 223.5 c 128,-1,2
 24 267 24 267 24 329 c 256,3,4
 24 391 24 391 67 435 c 128,-1,5
 110 479 110 479 172 479 c 0,6,7
 229 479 229 479 263 448 c 0,8,9
 269 443 269 443 269 436 c 0,10,11
 269 418 269 418 251 418 c 0,12,13
 245 418 245 418 239 422 c 0,14,15
 216 444 216 444 172 444 c 0,16,17
 124 444 124 444 91.5 410.5 c 128,-1,18
 59 377 59 377 59 329 c 0,19,20
 59 282 59 282 92 248.5 c 128,-1,21
 125 215 125 215 172 215 c 0,22,23
 215 215 215 215 236 235 c 1,24,25
 218 239 218 239 199 235 c 0,26,27
 175 230 175 230 168 230 c 0,28,29
 151 230 151 230 151 249 c 0,30,31
 151 261 151 261 163 265 c 0,32,33
 187 273 187 273 211 273 c 0,34,35
 273 273 273 273 316 228 c 128,-1,36
 359 183 359 183 359 121 c 0,37,38
 359 72 359 72 327 31 c 0,39,40
 283 -26 283 -26 210 -26 c 0,41,42
 158 -26 158 -26 118 4 c 0,43,44
 75 35 75 35 66 85 c 0,45,46
 62 106 62 106 83 106 c 0,47,48
 97 106 97 106 100 91 c 0,49,50
 106 54 106 54 140 31 c 0,51,52
 171 9 171 9 210 9 c 0,53,54
 266 9 266 9 299 52 c 0,55,56
 324 84 324 84 324 122 c 0,57,58
 324 185 324 185 269 220 c 1,59,60
 235 180 235 180 172 180 c 0,0,1
EndSplineSet
Validated: 33
EndChar

StartChar: T
Encoding: 84 84 55
Width: 418
Flags: W
LayerCount: 2
Back
Fore
SplineSet
158 -50 m 1,0,1
 158 353 l 1,2,-1
 83 353 l 2,3,4
 66 353 66 353 66 371 c 0,5,6
 66 388 66 388 83 388 c 2,7,-1
 158 388 l 1,8,-1
 158 460 l 2,9,10
 158 477 158 477 175 477 c 0,11,12
 193 477 193 477 193 460 c 2,13,-1
 193 388 l 1,14,-1
 380 388 l 2,15,16
 397 388 397 388 397 371 c 0,17,18
 397 353 397 353 380 353 c 2,19,-1
 193 353 l 1,20,-1
 193 35 l 1,21,22
 222 58 222 58 253 58 c 0,23,24
 288 58 288 58 288 38 c 0,25,26
 288 20 288 20 274 20 c 0,27,28
 271 20 271 20 264.5 21.5 c 128,-1,29
 258 23 258 23 254 23 c 0,30,31
 232 23 232 23 202 -5 c 0,32,33
 195 -11 195 -11 158 -50 c 1,0,1
EndSplineSet
Validated: 1
EndChar

StartChar: U
Encoding: 85 85 56
Width: 560
Flags: W
LayerCount: 2
Back
Fore
SplineSet
149 6 m 0,0,1
 51 70 51 70 51 186 c 0,2,3
 51 249 51 249 83.5 302.5 c 128,-1,4
 116 356 116 356 172 383 c 1,5,-1
 156 462 l 2,6,7
 152 483 152 483 173 483 c 0,8,9
 187 483 187 483 190 469 c 2,10,-1
 212 362 l 1,11,12
 85 310 85 310 85 188 c 0,13,14
 85 88 85 88 168 35 c 0,15,16
 213 6 213 6 267 6 c 0,17,18
 366 6 366 6 420 89 c 0,19,20
 450 135 450 135 450 188 c 0,21,22
 450 287 450 287 367 340 c 0,23,24
 358 346 358 346 358 355 c 0,25,26
 358 373 358 373 376 373 c 0,27,28
 381 373 381 373 386 370 c 0,29,30
 423 346 423 346 448 308 c 1,31,-1
 448 414 l 2,32,33
 448 432 448 432 466 432 c 0,34,35
 483 432 483 432 483 414 c 2,36,-1
 483 5 l 2,37,38
 483 -12 483 -12 466 -12 c 0,39,40
 448 -12 448 -12 448 5 c 2,41,-1
 448 68 l 1,42,43
 384 -29 384 -29 267 -29 c 0,44,45
 203 -29 203 -29 149 6 c 0,0,1
EndSplineSet
Validated: 1
EndChar

StartChar: V
Encoding: 86 86 57
Width: 395
Flags: W
LayerCount: 2
Back
Fore
SplineSet
304 381 m 0,0,1
 403 317 403 317 403 204 c 0,2,3
 403 109 403 109 337 44 c 128,-1,4
 271 -21 271 -21 177 -17 c 0,5,6
 163 -19 163 -19 159 -5 c 2,7,-1
 22 449 l 2,8,9
 15 472 15 472 39 472 c 0,10,11
 51 472 51 472 55 459 c 2,12,13
 188 17 l 1,14,15
 264 18 264 18 316 72 c 128,-1,16
 368 126 368 126 368 203 c 0,17,18
 368 298 368 298 285 352 c 0,19,20
 277 357 277 357 277 366 c 0,21,22
 277 385 277 385 294 385 c 0,23,24
 299 385 299 385 304 381 c 0,0,1
EndSplineSet
Validated: 33
EndChar

StartChar: W
Encoding: 87 87 58
Width: 663
Flags: W
LayerCount: 2
Back
Fore
SplineSet
366 319 m 1,0,1
 402 268 402 268 403 204 c 1,2,-1
 459 15 l 1,3,4
 535 16 535 16 586.5 69.5 c 128,-1,5
 638 123 638 123 638 200 c 0,6,7
 638 294 638 294 555 349 c 0,8,9
 547 354 547 354 547 364 c 0,10,11
 547 382 547 382 564 382 c 0,12,13
 569 382 569 382 574 379 c 0,14,15
 673 315 673 315 673 201 c 0,16,17
 673 106 673 106 608 42 c 128,-1,18
 543 -22 543 -22 449 -19 c 1,19,20
 432 -23 432 -23 428 -8 c 2,21,-1
 389 126 l 1,22,23
 365 58 365 58 307.5 18 c 128,-1,24
 250 -22 250 -22 178 -20 c 0,25,26
 163 -23 163 -23 159 -8 c 2,27,-1
 22 446 l 2,28,29
 15 469 15 469 39 469 c 0,30,31
 51 469 51 469 55 456 c 2,32,-1
 187 15 l 1,33,34
 265 15 265 15 317 70 c 128,-1,35
 369 125 369 125 368 203 c 0,36,37
 366 296 366 296 285 349 c 0,38,39
 277 354 277 354 277 364 c 0,40,41
 277 382 277 382 294 382 c 0,42,43
 301 382 301 382 317 370 c 1,44,-1
 291 446 l 2,45,46
 290 449 290 449 290 452 c 0,47,48
 290 469 290 469 309 469 c 0,49,50
 321 469 321 469 325 456 c 2,51,-1
 366 319 l 1,0,1
EndSplineSet
Validated: 33
EndChar

StartChar: X
Encoding: 88 88 59
Width: 407
Flags: W
LayerCount: 2
Back
Fore
SplineSet
395 12 m 2,0,1
 400 7 400 7 400 0 c 0,2,3
 400 -18 400 -18 382 -18 c 0,4,5
 376 -18 376 -18 370 -12 c 2,6,-1
 247 120 l 1,7,8
 156 -2 156 -2 36 -17 c 0,9,10
 16 -19 16 -19 16 0 c 0,11,12
 16 15 16 15 31 17 c 0,13,14
 139 31 139 31 223 148 c 1,15,-1
 62 323 l 2,16,17
 57 328 57 328 57 335 c 0,18,19
 57 353 57 353 75 353 c 0,20,21
 81 353 81 353 87 347 c 2,22,-1
 243 178 l 1,23,24
 288 256 288 256 288 335 c 0,25,26
 288 369 288 369 280 399 c 0,27,28
 274 422 274 422 297 422 c 0,29,30
 310 422 310 422 313 409 c 0,31,32
 323 370 323 370 323 335 c 0,33,34
 323 241 323 241 268 151 c 1,35,-1
 395 12 l 2,0,1
EndSplineSet
Validated: 1
EndChar

StartChar: Y
Encoding: 89 89 60
Width: 386
Flags: W
LayerCount: 2
Back
Fore
SplineSet
296 381 m 0,0,1
 395 317 395 317 395 204 c 0,2,3
 395 116 395 116 337 52 c 128,-1,4
 279 -12 279 -12 191 -17 c 1,5,-1
 264 -262 l 2,6,7
 267 -271 267 -271 261.5 -278 c 128,-1,8
 256 -285 256 -285 247 -285 c 0,9,10
 235 -285 235 -285 231 -272 c 2,11,-1
 14 449 l 2,12,13
 7 472 7 472 31 472 c 0,14,15
 43 472 43 472 47 459 c 2,16,-1
 180 17 l 1,17,18
 256 18 256 18 308 72 c 128,-1,19
 360 126 360 126 360 203 c 0,20,21
 360 298 360 298 277 352 c 0,22,23
 269 357 269 357 269 366 c 0,24,25
 269 385 269 385 286 385 c 0,26,27
 291 385 291 385 296 381 c 0,0,1
EndSplineSet
Validated: 1
EndChar

StartChar: Z
Encoding: 90 90 61
Width: 536
Flags: W
LayerCount: 2
Back
Fore
SplineSet
58 0 m 1,0,-1
 384 253 l 1,1,2
 347 261 347 261 321.5 290 c 128,-1,3
 296 319 296 319 294 356 c 1,4,-1
 49 356 l 2,5,6
 32 356 32 356 32 374 c 0,7,8
 32 391 32 391 49 391 c 2,9,-1
 297 391 l 1,10,11
 305 421 305 421 334 445 c 0,12,13
 341 449 341 449 347 449 c 0,14,15
 363 449 363 449 363 432 c 0,16,17
 363 425 363 425 350.5 410 c 128,-1,18
 338 395 338 395 336 391 c 1,19,20
 466 391 l 2,21,22
 483 391 483 391 483 373 c 0,23,24
 483 356 483 356 466 356 c 2,25,-1
 327 356 l 1,26,27
 329 328 329 328 351.5 307 c 128,-1,28
 374 286 374 286 402 286 c 0,29,30
 427 286 427 286 449 303 c 1,31,-1
 471 276 l 1,32,-1
 160 35 l 1,33,-1
 491 35 l 2,34,35
 508 35 508 35 508 18 c 0,36,37
 508 0 508 0 491 0 c 2,38,-1
 58 0 l 1,0,-1
EndSplineSet
Validated: 1
EndChar

StartChar: bracketleft
Encoding: 91 91 62
Width: 1000
Flags: W
LayerCount: 2
Back
Fore
SplineSet
152 377 m 1,0,-1
 44 377 l 1,1,2
 76 414 76 414 82 423 c 0,3,4
 101 451 101 451 101 477 c 0,5,6
 101 488 101 488 98 500 c 1,7,-1
 141 513 l 1,8,9
 146 496 146 496 146 478 c 0,10,11
 146 449 146 449 134 422 c 1,12,-1
 202 422 l 1,13,-1
 193 336 l 1,14,-1
 336 336 l 1,15,-1
 336 291 l 1,16,-1
 188 291 l 1,17,-1
 176 189 l 2,18,19
 175 180 175 180 175 172 c 0,20,21
 175 137 175 137 197 137 c 0,22,23
 208 137 208 137 222 156 c 0,24,25
 229 165 229 165 229 182 c 0,26,27
 229 194 229 194 222 194 c 0,28,29
 221 194 l 2,30,-1
 221 194 l 2,31,32
 220 194 l 0,33,34
 219 194 l 0,35,36
 218 194 218 194 217 193 c 2,37,-1
 206 237 l 1,38,39
 215 239 215 239 223 239 c 0,40,41
 273 239 273 239 273 178 c 0,42,43
 273 99 273 99 184 99 c 0,44,45
 127 99 127 99 127 160 c 0,46,47
 127 176 127 176 132 196 c 1,48,-1
 142 291 l 1,49,-1
 13 291 l 1,50,-1
 13 336 l 1,51,-1
 147 336 l 1,52,-1
 152 377 l 1,0,-1
523 521 m 1,53,54
 529 503 529 503 529 485 c 0,55,56
 529 434 529 434 486 385 c 1,57,-1
 406 385 l 1,58,-1
 385 196 l 2,59,60
 384 187 384 187 384 185 c 0,61,62
 384 140 384 140 446 140 c 0,63,64
 498 140 498 140 524 175 c 0,65,66
 532 186 532 186 532 205 c 0,67,68
 532 219 532 219 525 224 c 0,69,70
 524 224 524 224 523 224 c 2,71,-1
 521 224 l 1,72,-1
 511 268 l 1,73,74
 518 270 518 270 525 270 c 0,75,76
 550 270 550 270 563 249.5 c 128,-1,77
 576 229 576 229 576 202 c 0,78,79
 576 172 576 172 560 150 c 0,80,81
 520 95 520 95 448 95 c 0,82,83
 405 95 405 95 374 117 c 0,84,85
 339 142 339 142 339 183 c 0,86,87
 339 186 339 186 341 204 c 2,88,-1
 366 430 l 1,89,-1
 465 430 l 1,90,91
 483 456 483 456 483 485 c 0,92,93
 483 497 483 497 480 507 c 1,94,-1
 523 521 l 1,53,54
448 238 m 1,95,-1
 449 237 l 1,96,-1
 427 198 l 1,97,98
 402 212 402 212 402 236 c 0,99,100
 402 270 402 270 455 310 c 0,101,102
 469 321 469 321 535 366 c 0,103,104
 538 368 538 368 546 374 c 1,105,-1
 579 344 l 1,106,107
 568 332 568 332 537 311 c 2,108,-1
 489 279 l 2,109,110
 454 256 454 256 448 238 c 1,95,-1
709 430 m 1,111,112
 712 443 712 443 712 450 c 0,113,114
 712 460 712 460 698 461 c 1,115,116
 705 441 705 441 705 425 c 0,117,118
 705 423 705 423 705 421 c 2,119,-1
 709 430 l 1,111,112
869 268 m 1,120,-1
 884 236 l 1,121,-1
 817 236 l 1,122,-1
 851 114 l 1,123,124
 850 109 850 109 850 103 c 0,125,126
 850 65 850 65 874 65 c 0,127,128
 901 65 901 65 901 104 c 0,129,130
 901 115 901 115 893 115 c 0,131,132
 892 115 892 115 891 115 c 2,133,-1
 880 158 l 1,134,135
 889 161 889 161 898 161 c 0,136,137
 946 161 946 161 946 101 c 0,138,139
 946 20 946 20 858 20 c 0,140,141
 801 20 801 20 801 82 c 0,142,143
 801 96 801 96 804 113 c 1,144,-1
 771 236 l 1,145,-1
 676 236 l 1,146,-1
 619 103 l 1,147,-1
 578 121 l 1,148,-1
 633 256 l 1,149,-1
 633 281 l 1,150,-1
 645 282 l 1,151,-1
 681 366 l 1,152,-1
 618 366 l 1,153,154
 660 414 660 414 660 431 c 0,155,156
 660 437 660 437 638 500 c 1,157,158
 678 505 678 505 694 505 c 0,159,160
 757 505 757 505 757 451 c 0,161,162
 757 428 757 428 750 411 c 1,163,-1
 768 411 l 1,164,-1
 804 282 l 1,165,-1
 823 282 l 1,166,167
 817 302 817 302 817 321.5 c 128,-1,168
 817 341 817 341 826 360 c 1,169,-1
 864 344 l 1,170,171
 859 330 859 330 859 314 c 0,172,173
 859 292 859 292 869 268 c 1,120,-1
696 282 m 1,174,-1
 757 282 l 1,175,-1
 734 366 l 1,176,-1
 731 366 l 1,177,-1
 696 282 l 1,174,-1
EndSplineSet
Validated: 1
EndChar

StartChar: b
Encoding: 98 98 69
Width: 539
Flags: WO
LayerCount: 2
Back
Fore
SplineSet
92 -18 m 0,0,1
 74 -18 74 -18 74 0 c 256,2,3
 74 18 74 18 92 18 c 0,4,5
 128 18 128 18 133 200 c 1,6,-1
 168 200 l 1,7,8
 168 124 168 124 221 71 c 128,-1,9
 274 18 274 18 350 18 c 256,10,11
 426 18 426 18 479 71 c 128,-1,12
 532 124 532 124 532 200 c 256,13,14
 532 276 532 276 479 329 c 128,-1,15
 426 382 426 382 350 382 c 0,16,17
 294 382 294 382 247 349 c 0,18,19
 243 346 243 346 236 346 c 0,20,21
 219 346 219 346 219 364 c 0,22,23
 219 372 219 372 227 378 c 0,24,25
 282 417 282 417 350 417 c 0,26,27
 441 417 441 417 504 354 c 128,-1,28
 567 291 567 291 567 200 c 0,29,30
 567 108 567 108 504.5 45 c 128,-1,31
 442 -18 442 -18 350 -18 c 0,32,33
 292 -18 292 -18 242 11.5 c 128,-1,34
 192 41 192 41 162 91 c 1,35,36
 149 -18 149 -18 92 -18 c 0,0,1
135 813.8 m 4,37,-1
 135 352 l 1,38,-1
 314 184 l 2,39,40
 319 179.30726257 319 179.30726257 319 171 c 0,41,42
 319 153 319 153 302 153 c 0,43,44
 295.337078652 153 295.337078652 153 290 158 c 2,45,-1
 100 336 l 1,46,-1
 100 742 l 1,47,48
 85 733 85 733 62.2231404959 733.090909091 c 0,49,50
 49 733 49 733 33 736 c 0,51,52
 19 738 19 738 19 753 c 0,53,54
 19 772 19 772 38 770 c 0,55,-1
 57 768 l 0,56,57
 81.1509433962 764.981132075 81.1509433962 764.981132075 102 790 c 0,58,59
 111.658138658 801.43636039 111.658138658 801.43636039 123.600240041 817.219927988 c 24,60,61
 131 826 131 826 135 813.8 c 4,37,-1
EndSplineSet
Validated: 524321
EndChar

StartChar: Adieresis
Encoding: 196 196 112
Width: 460
Flags: W
LayerCount: 2
Back
Fore
SplineSet
433 356 m 0,0,1
 433 376 433 376 396 376 c 1,2,3
 389 368 389 368 376 338 c 0,4,5
 365 314 365 314 351 302 c 1,6,7
 328 344 328 344 325 349 c 0,8,9
 305 381 305 381 291 385 c 1,10,11
 277 378 277 378 277 365 c 0,12,13
 277 354 277 354 301.5 319.5 c 128,-1,14
 326 285 326 285 326 281 c 2,15,-1
 326 259 l 1,16,-1
 231 245 l 2,17,18
 166 235 166 235 135 214 c 0,19,20
 93 184 93 184 99 125 c 1,21,22
 92 118 92 118 35 101 c 1,23,24
 35 92 35 92 40 76.5 c 128,-1,25
 45 61 45 61 45 55 c 1,26,27
 57 55 57 55 81 58.5 c 128,-1,28
 105 62 105 62 117 62 c 0,29,30
 127 62 127 62 142.5 50 c 128,-1,31
 158 38 158 38 166 38 c 2,32,-1
 267 38 l 1,33,34
 253 48 253 48 228 66 c 1,35,36
 251 96 251 96 255 100 c 0,37,38
 269 116 269 116 281 120 c 1,39,40
 291 108 291 108 304.5 79 c 128,-1,41
 318 50 318 50 328 38 c 1,42,-1
 363 38 l 1,43,44
 363 42 363 42 354.5 56 c 128,-1,45
 346 70 346 70 347 73 c 0,46,47
 379 176 379 176 377 214 c 0,48,49
 379 216 379 216 396 227.5 c 128,-1,50
 413 239 413 239 413 241 c 0,51,52
 394 275 394 275 394 287 c 0,53,54
 394 293 394 293 396 296 c 0,55,56
 433 347 433 347 433 356 c 0,0,1
EndSplineSet
Validated: 41
EndChar

